<svg width="80" height="80" xmlns="http://www.w3.org/2000/svg" version="1.1">
    <g id="Layer_1">
        <title>Layer 1</title>
        <path stroke-width="0" stroke="#000" id="svg_1" d="m23.1883,43.49388l8.90977,-18.24561l23.7594,0l8.90977,18.24561l-8.90977,18.24561l-23.7594,0l-8.90977,-18.24561z" fill="#58bc58"/>
        <path id="svg_2" d="m49.21982,34.32656c-0.89493,-0.40387 -1.97281,-0.0571 -2.40901,0.77836c-0.4344,0.83545 -0.05948,1.83968 0.83545,2.24439c2.80735,1.27291 4.74501,3.95056 4.74321,7.05392c-0.00901,4.32757 -3.76717,7.82892 -8.41124,7.83647c-4.64498,-0.0084 -8.40313,-3.50975 -8.41215,-7.83647c-0.0018,-3.10503 1.93676,-5.7852 4.74681,-7.0556c0.89673,-0.40471 1.26894,-1.40894 0.83545,-2.24439c-0.4344,-0.83377 -1.51047,-1.18307 -2.4072,-0.77836c-4.01231,1.80945 -6.7791,5.64498 -6.78091,10.07834c0.0018,6.1832 5.37948,11.19424 12.01799,11.19592c6.63761,-0.00168 12.01619,-5.01272 12.01709,-11.19592c-0.0018,-4.43168 -2.76499,-8.2647 -6.7755,-10.07666zm-5.24159,8.25714c0.99497,0 1.80157,-0.75065 1.80157,-1.6793l0,-7.83731c0,-0.92782 -0.80661,-1.67846 -1.80157,-1.67846c-0.99677,0 -1.80247,0.75149 -1.80247,1.67846l0,7.83647c0,0.92866 0.80571,1.68014 1.80247,1.68014z" stroke-width="0" stroke="#000" fill="#ffffff"/>
        <path transform="rotate(19.3908 42.8297 49.3659)" stroke="#000" id="svg_4" d="m23.02289,65.71579c1.69233,-3.87045 4.00865,-7.14832 6.20584,-8.78196c2.35393,-1.75018 1.30957,-2.50936 -1.1187,-0.81322c-1.0216,0.71358 -1.31349,0.19544 -1.31349,-2.33164c0,-6.02941 4.47465,-9.76023 15.24089,-12.70736c9.10984,-2.49372 15.82611,-5.29807 18.61083,-7.77088l2.2692,-2.01504l0,3.50598c0,4.33519 -1.92555,10.88461 -4.05696,13.79904c-2.26104,3.0917 -10.01105,8.79852 -13.8141,10.17221c-3.4072,1.23071 -10.68388,1.59302 -14.57293,0.72561c-1.93807,-0.43226 -2.55315,-0.10199 -3.55736,1.91015c-0.66777,1.33802 -1.21413,3.24156 -1.21413,4.23007c0,1.12224 -0.64438,1.7973 -1.71562,1.7973c-1.27231,0 -1.52126,-0.4445 -0.96346,-1.72025l0,0z" stroke-width="0" fill="#e6f2e6"/>
        <text transform="matrix(0.216325 0 0 0.0796293 17.3351 9.23992)" stroke="#000" font-style="italic" font-weight="bold" xml:space="preserve" text-anchor="start" font-family="Noto Sans JP" font-size="24" id="svg_5" y="238.41416" x="73.65204" stroke-width="0" fill="#ffffff">WL</text>
    </g>
</svg>