<svg width="25" height="25" xmlns="http://www.w3.org/2000/svg">
    <g>
        <title>Layer 1</title>
        <path stroke="#000" fill="#000000" stroke-width="0" d="m4.66003,19.71064c0.68795,-1.59251 1.62956,-2.9412 2.52275,-3.61336c0.9569,-0.72012 0.53236,-1.03249 -0.45476,-0.3346c-0.41529,0.29361 -0.53395,0.08042 -0.53395,-0.95936c0,-2.48082 1.819,-4.01588 6.1956,-5.22848c3.70326,-1.02605 6.4335,-2.17991 7.56552,-3.19736l0.92245,-0.82909l0,1.44255c0,1.78373 -0.78276,4.47851 -1.6492,5.67766c-0.91914,1.27209 -4.06961,3.62018 -5.6156,4.18539c-1.38507,0.50638 -4.34313,0.65546 -5.92407,0.29855c-0.78785,-0.17786 -1.03789,-0.04196 -1.44611,0.78594c-0.27146,0.55053 -0.49356,1.33375 -0.49356,1.74048c0,0.46175 -0.26195,0.7395 -0.69742,0.7395c-0.51721,0 -0.61841,-0.18289 -0.39166,-0.7078l0,0l0,0z" id="svg_2"/>
    </g>

</svg>